<svg width="334.28749999999997px" height="121.40512695312499px" xmlns="http://www.w3.org/2000/svg" viewBox="82.85625000000002 14.297436523437504 334.28749999999997 121.40512695312499" style="background: rgba(0, 0, 0, 0);" preserveAspectRatio="xMidYMid"><defs>
  <filter id="editing-scratch" x="-100%" y="-100%" width="300%" height="300%">
    <!-- COLOR -->
    <feFlood flood-color="#ddd" flood-opacity="0.75" result="COLOR-blu"></feFlood>
    <feFlood flood-color="#666" flood-opacity="0.4" result="COLOR-red"></feFlood>
    <!-- COLOR END -->

    <!-- Texture -->
    <feTurbulence baseFrequency=".05" type="fractalNoise" numOctaves="3" seed="0" result="Texture_10"></feTurbulence>
    <feColorMatrix type="matrix" values="0 0 0 0 0,
    0 0 0 0 0,
    0 0 0 0 0,
    0 0 0 -2.1 1.1" in="Texture_10" result="Texture_20"></feColorMatrix>

    <feColorMatrix result="Texture_30" type="matrix" values="0 0 0 0 0,
    0 0 0 0 0,
    0 0 0 0 0,
    0 0 0 -1.7 1.8" in="Texture_10"></feColorMatrix>
    <!-- Texture -->

    <!-- FILL -->
    <feOffset dx="-3" dy="4" in="SourceAlpha" result="FILL_10"></feOffset>
    <feDisplacementMap scale="17" in="FILL_10" in2="Texture_10" result="FILL_20"></feDisplacementMap>
    <feComposite operator="in" in="Texture_30" in2="FILL_20" result="FILL_40"></feComposite>
    <feComposite operator="in" in="COLOR-blu" in2="FILL_40" result="FILL_50"></feComposite>
    <!-- FILL END-->

    <!-- OUTLINE -->
    <feMorphology operator="dilate" radius="3" in="SourceGraphic" result="OUTLINE_10"></feMorphology>
    <feComposite operator="out" in="OUTLINE_10" in2="SourceGraphic" result="OUTLINE_20"></feComposite>
    <feDisplacementMap scale="7" in="OUTLINE_20" in2="Texture_10" result="OUTLINE_30"></feDisplacementMap>
    <feComposite operator="arithmetic" k2="-1" k3="1" in="Texture_20" in2="OUTLINE_30" result="OUTLINE_40"></feComposite>
    <!-- OUTLINE END-->

    <!-- BEVEL OUTLINE -->
    <feConvolveMatrix order="8,8" divisor="1" kernelMatrix="1 0 0 0 0 0 0 0 0 1 0 0 0 0 0 0 0 0 1 0 0 0 0 0 0 0 0 1 0 0 0 0 0 0 0 0 1 0 0 0 0 0 0 0 0 1 0 0 0 0 0 0 0 0 1 0 0 0 0 0 0 0 0 1 " in="SourceGraphic" result="BEVEL_10"></feConvolveMatrix>
    <feMorphology operator="dilate" radius="2" in="BEVEL_10" result="BEVEL_20"></feMorphology>
    <feComposite operator="out" in="BEVEL_20" in2="BEVEL_10" result="BEVEL_30"></feComposite>
    <feDisplacementMap scale="7" in="BEVEL_30" in2="Texture_10" result="BEVEL_40"></feDisplacementMap>
    <feComposite operator="arithmetic" k2="-1" k3="1" in="Texture_20" in2="BEVEL_40" result="BEVEL_50"></feComposite>
    <feOffset dx="-7" dy="-7" in="BEVEL_50" result="BEVEL_60"></feOffset>
    <feComposite operator="out" in="BEVEL_60" in2="OUTLINE_10" result="BEVEL_70"></feComposite>
    <!-- BEVEL OUTLINE END -->

    <!-- BEVEL FILL -->
    <feOffset dx="-9" dy="-9" in="BEVEL_10" result="BEVEL-FILL_10"></feOffset>
    <feComposite operator="out" in="BEVEL-FILL_10" in2="OUTLINE_10" result="BEVEL-FILL_20"></feComposite>
    <feDisplacementMap scale="17" in="BEVEL-FILL_20" in2="Texture_10" result="BEVEL-FILL_30"></feDisplacementMap>
    <feComposite operator="in" in="COLOR-red" in2="BEVEL-FILL_30" result="BEVEL-FILL_50"></feComposite> <!-- -->
    <!-- BEVEL FILL END-->

    <feMerge result="merge2">
     <feMergeNode in="BEVEL-FILL_50"></feMergeNode>
     <feMergeNode in="BEVEL_70"></feMergeNode>
     <feMergeNode in="FILL_50"></feMergeNode>
      <feMergeNode in="OUTLINE_40"></feMergeNode>
    </feMerge>
  </filter>
</defs>
<g filter="url(#editing-scratch)"><g transform="translate(135.82499766349792, 101.20999908447266)"><path d="M2.11-6.40L2.11-6.40L2.11-6.40Q2.11-8.13 3.01-12.48L3.01-12.48L6.40-29.76L2.62-29.76L2.88-31.68L2.88-31.68Q10.56-33.98 17.98-39.62L17.98-39.62L21.06-39.62L19.52-32.64L24.51-32.64L23.94-29.76L19.01-29.76L15.74-12.48L15.74-12.48Q14.91-8.51 14.91-7.17L14.91-7.17L14.91-7.17Q14.91-4.10 17.60-3.46L17.60-3.46L17.60-3.46Q16.96-1.28 14.66 0L14.66 0L14.66 0Q12.35 1.28 9.09 1.28L9.09 1.28L9.09 1.28Q5.82 1.28 3.97-0.77L3.97-0.77L3.97-0.77Q2.11-2.82 2.11-6.40ZM44.74-2.69L44.74-2.69L44.74-2.69Q41.66 1.28 34.05 1.28L34.05 1.28L34.05 1.28Q30.08 1.28 27.20-1.12L27.20-1.12L27.20-1.12Q24.32-3.52 24.32-6.98L24.32-6.98L24.32-6.98Q24.32-8.90 24.51-9.86L24.51-9.86L28.80-32.64L41.79-33.92L37.12-9.22L37.12-9.22Q36.86-7.81 36.86-6.98L36.86-6.98L36.86-6.98Q36.86-3.26 39.10-3.26L39.10-3.26L39.10-3.26Q41.60-3.26 43.39-6.66L43.39-6.66L43.39-6.66Q43.97-7.74 44.22-9.15L44.22-9.15L48.77-32.64L61.38-33.92L56.64-8.96L56.64-8.96Q56.45-8 56.45-6.98L56.45-6.98L56.45-6.98Q56.45-5.95 57.02-4.83L57.02-4.83L57.02-4.83Q57.60-3.71 59.46-3.46L59.46-3.46L59.46-3.46Q59.07-1.92 57.73-0.90L57.73-0.90L57.73-0.90Q54.91 1.28 51.87 1.28L51.87 1.28L51.87 1.28Q48.83 1.28 47.04 0.19L47.04 0.19L47.04 0.19Q45.25-0.90 44.74-2.69ZM91.90 1.28L91.90 1.28L91.90 1.28Q84.16 1.28 84.16-4.74L84.16-4.74L84.16-4.74Q84.22-6.40 84.74-9.22L84.74-9.22L85.89-15.10L85.89-15.10Q87.62-23.42 87.62-25.28L87.62-25.28L87.62-25.28Q87.62-28.99 85.44-28.99L85.44-28.99L85.44-28.99Q81.79-28.99 79.87-19.46L79.87-19.46L76.10 0L63.23 1.28L69.89-32.70L80.38-33.92L79.36-27.65L79.36-27.65Q82.37-33.92 91.58-33.92L91.58-33.92L91.58-33.92Q96.06-33.92 97.95-32.03L97.95-32.03L97.95-32.03Q99.84-30.14 99.84-25.92L99.84-25.92L99.84-25.92Q99.84-21.95 97.79-12.67L97.79-12.67L97.79-12.67Q96.83-8.51 96.83-6.94L96.83-6.94L96.83-6.94Q96.83-5.38 97.70-4.48L97.70-4.48L97.70-4.48Q98.56-3.58 99.84-3.46L99.84-3.46L99.84-3.46Q99.20-1.28 96.99 0L96.99 0L96.99 0Q94.78 1.28 91.90 1.28ZM109.50-26.75L109.50-26.75L109.50-26.75Q111.68-29.82 114.98-31.87L114.98-31.87L114.98-31.87Q118.27-33.92 122.30-33.92L122.30-33.92L122.30-33.92Q126.34-33.92 128.26-32.64L128.26-32.64L140.80-33.92L136.45-9.34L136.45-9.34Q134.21 3.20 129.47 8.13L129.47 8.13L129.47 8.13Q124.93 12.80 116.10 12.80L116.10 12.80L116.10 12.80Q109.38 12.80 105.54 10.69L105.54 10.69L105.54 10.69Q101.70 8.58 101.70 5.06L101.70 5.06L101.70 5.06Q101.70 2.43 103.68 0.93L103.68 0.93L103.68 0.93Q105.66-0.58 108.74-0.58L108.74-0.58L108.74-0.58Q111.42-0.58 113.47 0.64L113.47 0.64L113.47 0.64Q114.69 1.28 115.26 2.18L115.26 2.18L115.26 2.18Q113.79 3.46 113.79 5.57L113.79 5.57L113.79 5.57Q113.79 8.32 116.35 8.32L116.35 8.32L116.35 8.32Q120.64 8.32 123.07-1.79L123.07-1.79L123.07-1.79Q123.78-4.54 124.35-7.30L124.35-7.30L124.35-7.30Q121.47-3.78 114.94-3.78L114.94-3.78L114.94-3.78Q110.40-3.78 107.78-5.95L107.78-5.95L107.78-5.95Q105.15-8.13 105.15-13.25L105.15-13.25L105.15-13.25Q105.15-16.45 106.24-20.06L106.24-20.06L106.24-20.06Q107.33-23.68 109.50-26.75ZM117.82-13.06L117.82-13.06L117.82-13.06Q117.82-8.70 120.06-8.70L120.06-8.70L120.06-8.70Q121.60-8.70 123.07-10.37L123.07-10.37L123.07-10.37Q124.22-11.71 124.67-13.70L124.67-13.70L127.94-30.14L127.94-30.14Q127.62-30.21 127.30-30.34L127.30-30.34L127.30-30.34Q126.66-30.59 125.82-30.59L125.82-30.59L125.82-30.59Q121.92-30.59 119.62-24.19L119.62-24.19L119.62-24.19Q117.82-19.20 117.82-13.06ZM154.56-3.78L154.56-3.78L154.56-3.78Q154.56-6.21 156.45-7.55L156.45-7.55L156.45-7.55Q158.34-8.90 161.02-8.90L161.02-8.90L161.02-8.90Q163.71-8.90 165.34-7.55L165.34-7.55L165.34-7.55Q166.98-6.21 166.98-3.78L166.98-3.78L166.98-3.78Q166.98-1.34 165.15-0.03L165.15-0.03L165.15-0.03Q163.33 1.28 160.64 1.28L160.64 1.28L160.64 1.28Q157.95 1.28 156.26-0.03L156.26-0.03L156.26-0.03Q154.56-1.34 154.56-3.78ZM184.19-3.78L184.19-3.78L184.19-3.78Q184.19-6.21 186.08-7.55L186.08-7.55L186.08-7.55Q187.97-8.90 190.66-8.90L190.66-8.90L190.66-8.90Q193.34-8.90 194.98-7.55L194.98-7.55L194.98-7.55Q196.61-6.21 196.61-3.78L196.61-3.78L196.61-3.78Q196.61-1.34 194.78-0.03L194.78-0.03L194.78-0.03Q192.96 1.28 190.27 1.28L190.27 1.28L190.27 1.28Q187.58 1.28 185.89-0.03L185.89-0.03L185.89-0.03Q184.19-1.34 184.19-3.78ZM213.82-3.78L213.82-3.78L213.82-3.78Q213.82-6.21 215.71-7.55L215.71-7.55L215.71-7.55Q217.60-8.90 220.29-8.90L220.29-8.90L220.29-8.90Q222.98-8.90 224.61-7.55L224.61-7.55L224.61-7.55Q226.24-6.21 226.24-3.78L226.24-3.78L226.24-3.78Q226.24-1.34 224.42-0.03L224.42-0.03L224.42-0.03Q222.59 1.28 219.90 1.28L219.90 1.28L219.90 1.28Q217.22 1.28 215.52-0.03L215.52-0.03L215.52-0.03Q213.82-1.34 213.82-3.78Z" fill="#000"></path></g></g><style>text {
  font-size: 64px;
  font-family: Arial Black;
  dominant-baseline: central;
  text-anchor: middle;
}</style></svg>